<svg width="50" height="40" viewBox="0 0 50 40" fill="none" xmlns="http://www.w3.org/2000/svg">
<path d="M49.1062 4.7603C47.2946 5.56011 45.3578 6.09974 43.3149 6.35028C45.3963 5.09757 46.9959 3.12214 47.7475 0.770899C45.801 1.90797 43.6329 2.73669 41.3394 3.19923C39.4989 1.23344 36.8875 0 33.9774 0C28.4076 0 23.8882 4.51939 23.8882 10.0795C23.8882 10.8793 23.9846 11.6502 24.1484 12.3826C15.7649 11.9875 8.32571 7.95953 3.35341 1.86943C2.47651 3.35341 1.98506 5.06866 1.98506 6.94773C1.98506 10.4553 3.76777 13.5389 6.47555 15.3505C4.81812 15.2927 3.26669 14.8398 1.90798 14.0882V14.2134C1.90798 19.1087 5.37702 23.1848 10.0024 24.1099C9.15442 24.3411 8.25825 24.4568 7.34281 24.4568C6.69718 24.4568 6.08046 24.3989 5.46375 24.2833C6.755 28.292 10.4746 31.2118 14.9073 31.2889C11.4671 33.9966 7.09227 35.6059 2.39942 35.6059C1.59961 35.6059 0.799807 35.5577 0 35.471C4.49048 38.3329 9.78078 40 15.4951 40C34.0448 40 44.1918 24.6302 44.1918 11.3226C44.1918 10.8986 44.1918 10.465 44.1629 10.0313C46.1287 8.61479 47.8535 6.83209 49.2026 4.80848L49.1062 4.7603Z" fill="white"/>
</svg>
